<svg width="501" height="501" viewBox="0 0 501 501" fill="none" xmlns="http://www.w3.org/2000/svg">
<g clip-path="url(#clip0_14_837)">
<path d="M479.494 259.365C479.62 256.258 479.684 253.138 479.684 250.005C479.684 247.475 479.642 244.958 479.559 242.455C482.754 236.3 495.389 223.22 495.389 223.22C495.389 223.22 501.244 217.27 500.954 215.255C500.664 213.24 493.359 209.145 493.359 209.145C493.359 209.145 478.029 200.37 472.969 195.305C471.572 189.745 469.975 184.27 468.179 178.88C469.564 172.02 477.874 156.125 477.874 156.125C477.874 156.125 481.799 148.78 480.949 146.925C480.099 145.07 471.949 143.185 471.949 143.185C471.949 143.185 454.699 139.03 448.419 135.58C445.515 130.68 442.435 125.9 439.179 121.24C438.529 114.325 442.009 96.6299 442.009 96.6299C442.009 96.6299 443.689 88.4899 442.339 86.9449C440.989 85.3999 432.619 85.8749 432.619 85.8749C432.619 85.8749 414.759 86.7049 407.804 85.1249C403.66 81.2582 399.375 77.5482 394.949 73.9949C392.349 67.5649 390.649 49.5549 390.649 49.5549C390.649 49.5549 389.944 41.2749 388.214 40.1699C386.484 39.0649 378.579 41.8549 378.579 41.8549C378.579 41.8549 361.824 47.5799 354.649 48.0499C349.539 45.4765 344.322 43.0882 338.999 40.8849C334.674 35.3849 327.999 18.7099 327.999 18.7099C327.999 18.7099 324.969 10.9649 322.999 10.3849C321.029 9.80489 314.229 14.6899 314.229 14.6899C314.229 14.6899 299.729 24.8899 292.999 27.3149C287.315 26.2749 281.56 25.4415 275.734 24.8149C270.029 20.8149 258.734 6.58989 258.734 6.58989C258.734 6.58989 253.614 0.00488281 251.554 0.00488281C249.494 0.00488281 244.374 6.58989 244.374 6.58989C244.374 6.58989 233.374 20.4899 227.589 24.6749C221.869 25.2515 216.214 26.0349 210.624 27.0249C203.994 24.7399 189.184 14.2799 189.184 14.2799C189.184 14.2799 182.399 9.39488 180.424 9.96988C178.449 10.5449 175.424 18.2849 175.424 18.2849C175.424 18.2849 168.839 34.5849 164.504 40.2849C159.17 42.4415 153.947 44.7899 148.834 47.3299C141.834 46.9799 124.654 41.0849 124.654 41.0849C124.654 41.0849 116.749 38.2849 115.019 39.3899C113.289 40.4949 112.529 48.7549 112.529 48.7549C112.529 48.7549 110.834 66.4049 108.269 72.9899C103.832 76.4999 99.542 80.1665 95.3987 83.9899C88.6387 85.6449 70.3187 84.7649 70.3187 84.7649C70.3187 84.7649 61.9387 84.2649 60.5937 85.8249C59.2487 87.3849 60.9137 95.5099 60.9137 95.5099C60.9137 95.5099 64.3037 112.895 63.7237 119.935C60.447 124.552 57.347 129.287 54.4237 134.14C48.3587 137.605 30.6337 141.85 30.6337 141.85C30.6337 141.85 22.4587 143.725 21.6037 145.58C20.7487 147.435 24.6637 154.78 24.6637 154.78C24.6637 154.78 32.7987 170.395 34.2887 177.355C32.4587 182.708 30.8287 188.152 29.3987 193.685C24.5337 198.685 8.79371 207.685 8.79371 207.685C8.79371 207.685 1.4837 211.765 1.1887 213.78C0.893696 215.795 6.7437 221.78 6.7437 221.78C6.7437 221.78 19.1287 234.635 22.4537 240.86C22.3337 243.9 22.272 246.953 22.2687 250.02C22.2687 252.583 22.312 255.14 22.3987 257.69C19.2437 263.825 6.5637 276.97 6.5637 276.97C6.5637 276.97 0.708709 282.925 0.998709 284.97C1.28871 287.015 8.5987 291.07 8.5987 291.07C8.5987 291.07 24.0037 299.875 29.0337 304.93C30.4237 310.467 32.017 315.915 33.8137 321.275C32.4587 328.11 24.1237 344.08 24.1237 344.08C24.1237 344.08 20.1987 351.43 21.0537 353.285C21.9087 355.14 30.0837 357.02 30.0837 357.02C30.0837 357.02 47.3987 361.175 53.6537 364.625C56.5504 369.505 59.6187 374.263 62.8587 378.9C63.5337 385.79 60.0587 403.55 60.0587 403.55C60.0587 403.55 58.3837 411.695 59.7287 413.235C61.0737 414.775 69.4537 414.305 69.4537 414.305C69.4537 414.305 87.3687 413.455 94.3037 415.045C98.4337 418.892 102.705 422.587 107.119 426.13C109.729 432.53 111.449 450.59 111.449 450.59C111.449 450.59 112.159 458.87 113.889 459.975C115.619 461.08 123.499 458.255 123.499 458.255C123.499 458.255 140.284 452.505 147.449 452.04C152.549 454.61 157.755 456.99 163.069 459.18C167.394 464.68 174.114 481.36 174.114 481.36C174.114 481.36 177.154 489.11 179.114 489.685C181.074 490.26 187.874 485.375 187.874 485.375C187.874 485.375 202.374 475.155 209.104 472.73C214.684 473.75 220.33 474.568 226.044 475.185C231.744 479.185 243.014 493.425 243.014 493.425C243.014 493.425 248.134 500.015 250.189 500.015C252.244 500.015 257.399 493.425 257.399 493.425C257.399 493.425 268.434 479.535 274.199 475.35C279.919 474.78 285.575 474.002 291.169 473.015C297.804 475.31 312.594 485.77 312.594 485.77C312.594 485.77 319.379 490.665 321.354 490.09C323.329 489.515 326.354 481.775 326.354 481.775C326.354 481.775 332.939 465.505 337.279 459.82C342.612 457.66 347.847 455.312 352.984 452.775C360.024 453.14 377.139 459.035 377.139 459.035C377.139 459.035 385.039 461.835 386.774 460.735C388.509 459.635 389.224 451.355 389.224 451.355C389.224 451.355 390.924 433.755 393.489 427.15C397.942 423.63 402.259 419.953 406.439 416.12C413.224 414.48 431.484 415.37 431.484 415.37C431.484 415.37 439.864 415.87 441.209 414.315C442.554 412.76 440.899 404.63 440.899 404.63C440.899 404.63 437.529 387.31 438.104 380.24C441.394 375.617 444.509 370.867 447.449 365.99C453.554 362.53 471.209 358.315 471.209 358.315C471.209 358.315 479.384 356.445 480.244 354.59C481.104 352.735 477.189 345.385 477.189 345.385C477.189 345.385 469.094 329.825 467.589 322.845C469.432 317.472 471.075 312.005 472.519 306.445C477.419 301.445 493.099 292.49 493.099 292.49C493.099 292.49 500.414 288.415 500.709 286.395C501.004 284.375 495.154 278.395 495.154 278.395C495.154 278.395 482.844 265.605 479.494 259.365Z" fill="#281F17"/>
<path d="M465.779 258.805C465.899 255.885 465.96 252.952 465.964 250.005C465.964 247.63 465.919 245.265 465.844 242.905C468.844 237.12 480.724 224.83 480.724 224.83C480.724 224.83 486.223 219.235 485.953 217.33C485.683 215.425 478.813 211.585 478.813 211.585C478.813 211.585 464.403 203.34 459.648 198.585C458.338 193.362 456.838 188.215 455.148 183.145C456.448 176.7 464.263 161.76 464.263 161.76C464.263 161.76 467.954 154.855 467.154 153.11C466.354 151.365 458.654 149.61 458.654 149.61C458.654 149.61 442.444 145.705 436.539 142.46C433.809 137.853 430.914 133.353 427.854 128.96C427.244 122.46 430.508 105.825 430.508 105.825C430.508 105.825 432.088 98.1699 430.823 96.7199C429.558 95.2699 421.683 95.7199 421.683 95.7199C421.683 95.7199 404.899 96.5049 398.359 95.0149C394.465 91.3849 390.439 87.8982 386.279 84.5549C383.834 78.5099 382.234 61.5549 382.234 61.5549C382.234 61.5549 381.568 53.7749 379.943 52.7349C378.318 51.6949 370.888 54.3149 370.888 54.3149C370.888 54.3149 355.138 59.6999 348.388 60.1449C343.588 57.7215 338.685 55.4749 333.678 53.4049C329.613 48.2249 323.319 32.5649 323.319 32.5649C323.319 32.5649 320.468 25.2799 318.613 24.7399C316.758 24.1999 310.398 28.8049 310.398 28.8049C310.398 28.8049 296.774 38.3949 290.444 40.6799C285.11 39.6799 279.698 38.8965 274.208 38.3299C268.848 34.5549 258.249 21.1949 258.249 21.1949C258.249 21.1949 253.434 15.0049 251.499 15.0049C249.564 15.0049 244.754 21.1949 244.754 21.1949C244.754 21.1949 234.399 34.2549 228.964 38.1949C223.584 38.7416 218.267 39.4766 213.013 40.3999C206.783 38.2549 192.863 28.3999 192.863 28.3999C192.863 28.3999 186.484 23.8049 184.629 24.3449C182.774 24.8849 179.898 32.1899 179.898 32.1899C179.898 32.1899 173.708 47.5099 169.633 52.8499C164.633 54.8732 159.724 57.0799 154.904 59.4699C148.304 59.1399 132.173 53.5999 132.173 53.5999C132.173 53.5999 124.748 50.9699 123.118 52.0049C121.488 53.0399 120.819 60.8249 120.819 60.8249C120.819 60.8249 119.229 77.4149 116.819 83.6049C112.649 86.9049 108.608 90.3532 104.698 93.9499C98.3435 95.5049 81.1235 94.6799 81.1235 94.6799C81.1235 94.6799 73.2485 94.2299 71.9835 95.6799C70.7185 97.1299 72.2835 104.785 72.2835 104.785C72.2835 104.785 75.4685 121.125 74.9235 127.745C71.8502 132.078 68.9368 136.528 66.1835 141.095C60.4835 144.355 43.8185 148.345 43.8185 148.345C43.8185 148.345 36.1335 150.105 35.3185 151.845C34.5035 153.585 38.1935 160.495 38.1935 160.495C38.1935 160.495 45.8435 175.17 47.2385 181.715C45.5185 186.752 43.9868 191.867 42.6435 197.06C38.0985 201.785 23.2985 210.255 23.2985 210.255C23.2985 210.255 16.4285 214.09 16.1485 215.985C15.8685 217.88 21.3735 223.485 21.3735 223.485C21.3735 223.485 33.0135 235.57 36.1385 241.42C36.0285 244.277 35.9718 247.147 35.9685 250.03C35.9685 252.44 36.0102 254.842 36.0935 257.235C33.1235 263.005 21.2035 275.365 21.2035 275.365C21.2035 275.365 15.7035 280.96 15.9735 282.865C16.2435 284.77 23.1185 288.6 23.1185 288.6C23.1185 288.6 37.6185 296.875 42.3235 301.63C43.6335 306.83 45.1335 311.952 46.8235 316.995C45.5485 323.42 37.7135 338.43 37.7135 338.43C37.7135 338.43 34.0285 345.335 34.8335 347.08C35.6385 348.825 43.3335 350.58 43.3335 350.58C43.3335 350.58 59.6085 354.49 65.4885 357.73C68.2085 362.313 71.0935 366.787 74.1435 371.15C74.7785 377.65 71.5085 394.32 71.5085 394.32C71.5085 394.32 69.9335 401.975 71.1985 403.425C72.4635 404.875 80.3385 404.425 80.3385 404.425C80.3385 404.425 97.1785 403.625 103.698 405.12C107.578 408.737 111.593 412.21 115.743 415.54C118.198 421.54 119.819 438.54 119.819 438.54C119.819 438.54 120.483 446.325 122.108 447.36C123.733 448.395 131.148 445.755 131.148 445.755C131.148 445.755 146.923 440.35 153.648 439.915C158.442 442.325 163.335 444.562 168.328 446.625C172.398 451.795 178.719 467.475 178.719 467.475C178.719 467.475 181.568 474.76 183.428 475.3C185.288 475.84 191.664 471.25 191.664 471.25C191.664 471.25 205.294 461.64 211.624 459.36C216.864 460.32 222.17 461.09 227.543 461.67C232.898 465.44 243.493 478.815 243.493 478.815C243.493 478.815 248.303 485.01 250.238 485.01C252.173 485.01 256.993 478.825 256.993 478.825C256.993 478.825 267.369 465.765 272.784 461.825C278.164 461.288 283.482 460.557 288.738 459.63C294.973 461.785 308.879 471.63 308.879 471.63C308.879 471.63 315.253 476.23 317.108 475.69C318.963 475.15 321.828 467.875 321.828 467.875C321.828 467.875 328.019 452.58 332.099 447.235C337.119 445.205 342.04 442.997 346.864 440.61C353.479 440.955 369.568 446.495 369.568 446.495C369.568 446.495 376.993 449.13 378.623 448.095C380.253 447.06 380.929 439.28 380.929 439.28C380.929 439.28 382.529 422.735 384.929 416.525C389.115 413.222 393.172 409.767 397.099 406.16C403.474 404.615 420.643 405.45 420.643 405.45C420.643 405.45 428.519 405.91 429.784 404.45C431.049 402.99 429.489 395.35 429.489 395.35C429.489 395.35 426.329 379.07 426.864 372.425C429.96 368.092 432.888 363.625 435.648 359.025C441.383 355.77 457.984 351.81 457.984 351.81C457.984 351.81 465.669 350.05 466.484 348.31C467.299 346.57 463.614 339.655 463.614 339.655C463.614 339.655 456.009 325.035 454.614 318.47C456.344 313.417 457.887 308.278 459.243 303.055C463.853 298.33 478.589 289.935 478.589 289.935C478.589 289.935 485.464 286.105 485.739 284.205C486.014 282.305 480.523 276.705 480.523 276.705C480.523 276.705 468.929 264.67 465.779 258.805Z" fill="#C18122"/>
<path d="M251.214 81.5049C256.046 81.5049 259.964 77.5874 259.964 72.7549C259.964 67.9224 256.046 64.0049 251.214 64.0049C246.381 64.0049 242.464 67.9224 242.464 72.7549C242.464 77.5874 246.381 81.5049 251.214 81.5049Z" fill="white"/>
<path d="M251.214 436.505C256.046 436.505 259.964 432.587 259.964 427.755C259.964 422.922 256.046 419.005 251.214 419.005C246.381 419.005 242.464 422.922 242.464 427.755C242.464 432.587 246.381 436.505 251.214 436.505Z" fill="white"/>
<path d="M428.714 259.005C433.546 259.005 437.464 255.087 437.464 250.255C437.464 245.422 433.546 241.505 428.714 241.505C423.881 241.505 419.964 245.422 419.964 250.255C419.964 255.087 423.881 259.005 428.714 259.005Z" fill="white"/>
<path d="M73.7139 259.005C78.5464 259.005 82.4639 255.087 82.4639 250.255C82.4639 245.422 78.5464 241.505 73.7139 241.505C68.8814 241.505 64.9639 245.422 64.9639 250.255C64.9639 255.087 68.8814 259.005 73.7139 259.005Z" fill="white"/>
<path d="M479.494 259.365C479.62 256.258 479.684 253.138 479.684 250.005C479.684 247.475 479.642 244.958 479.559 242.455C482.754 236.3 495.389 223.22 495.389 223.22C495.389 223.22 501.244 217.27 500.954 215.255C500.664 213.24 493.359 209.145 493.359 209.145C493.359 209.145 478.029 200.37 472.969 195.305C471.572 189.745 469.975 184.27 468.179 178.88C469.564 172.02 477.874 156.125 477.874 156.125C477.874 156.125 481.799 148.78 480.949 146.925C480.099 145.07 471.949 143.185 471.949 143.185C471.949 143.185 454.699 139.03 448.419 135.58C445.515 130.68 442.435 125.9 439.179 121.24C438.529 114.325 442.009 96.6299 442.009 96.6299C442.009 96.6299 443.689 88.4899 442.339 86.9449C440.989 85.3999 432.619 85.8749 432.619 85.8749C432.619 85.8749 414.759 86.7049 407.804 85.1249C403.66 81.2582 399.375 77.5482 394.949 73.9949C392.349 67.5649 390.649 49.5549 390.649 49.5549C390.649 49.5549 389.944 41.2749 388.214 40.1699C386.484 39.0649 378.579 41.8549 378.579 41.8549C378.579 41.8549 361.824 47.5799 354.649 48.0499C349.539 45.4765 344.322 43.0882 338.999 40.8849C334.674 35.3849 327.999 18.7099 327.999 18.7099C327.999 18.7099 324.969 10.9649 322.999 10.3849C321.029 9.80489 314.229 14.6899 314.229 14.6899C314.229 14.6899 299.729 24.8899 292.999 27.3149C287.315 26.2749 281.56 25.4415 275.734 24.8149C270.029 20.8149 258.734 6.58989 258.734 6.58989C258.734 6.58989 253.614 0.00488281 251.554 0.00488281C249.494 0.00488281 244.374 6.58989 244.374 6.58989C244.374 6.58989 233.374 20.4899 227.589 24.6749C221.869 25.2515 216.214 26.0349 210.624 27.0249C203.994 24.7399 189.184 14.2799 189.184 14.2799C189.184 14.2799 182.399 9.39488 180.424 9.96988C178.449 10.5449 175.424 18.2849 175.424 18.2849C175.424 18.2849 168.839 34.5849 164.504 40.2849C159.17 42.4415 153.947 44.7899 148.834 47.3299C141.834 46.9799 124.654 41.0849 124.654 41.0849C124.654 41.0849 116.749 38.2849 115.019 39.3899C113.289 40.4949 112.529 48.7549 112.529 48.7549C112.529 48.7549 110.834 66.4049 108.269 72.9899C103.832 76.4999 99.542 80.1665 95.3987 83.9899C88.6387 85.6449 70.3187 84.7649 70.3187 84.7649C70.3187 84.7649 61.9387 84.2649 60.5937 85.8249C59.2487 87.3849 60.9137 95.5099 60.9137 95.5099C60.9137 95.5099 64.3037 112.895 63.7237 119.935C60.447 124.552 57.347 129.287 54.4237 134.14C48.3587 137.605 30.6337 141.85 30.6337 141.85C30.6337 141.85 22.4587 143.725 21.6037 145.58C20.7487 147.435 24.6637 154.78 24.6637 154.78C24.6637 154.78 32.7987 170.395 34.2887 177.355C32.4587 182.708 30.8287 188.152 29.3987 193.685C24.5337 198.685 8.79371 207.685 8.79371 207.685C8.79371 207.685 1.4837 211.765 1.1887 213.78C0.893696 215.795 6.7437 221.78 6.7437 221.78C6.7437 221.78 19.1287 234.635 22.4537 240.86C22.3337 243.9 22.272 246.953 22.2687 250.02C22.2687 252.583 22.312 255.14 22.3987 257.69C19.2437 263.825 6.5637 276.97 6.5637 276.97C6.5637 276.97 0.708709 282.925 0.998709 284.97C1.28871 287.015 8.5987 291.07 8.5987 291.07C8.5987 291.07 24.0037 299.875 29.0337 304.93C30.4237 310.467 32.017 315.915 33.8137 321.275C32.4587 328.11 24.1237 344.08 24.1237 344.08C24.1237 344.08 20.1987 351.43 21.0537 353.285C21.9087 355.14 30.0837 357.02 30.0837 357.02C30.0837 357.02 47.3987 361.175 53.6537 364.625C56.5504 369.505 59.6187 374.263 62.8587 378.9C63.5337 385.79 60.0587 403.55 60.0587 403.55C60.0587 403.55 58.3837 411.695 59.7287 413.235C61.0737 414.775 69.4537 414.305 69.4537 414.305C69.4537 414.305 87.3687 413.455 94.3037 415.045C98.4337 418.892 102.705 422.587 107.119 426.13C109.729 432.53 111.449 450.59 111.449 450.59C111.449 450.59 112.159 458.87 113.889 459.975C115.619 461.08 123.499 458.255 123.499 458.255C123.499 458.255 140.284 452.505 147.449 452.04C152.549 454.61 157.755 456.99 163.069 459.18C167.394 464.68 174.114 481.36 174.114 481.36C174.114 481.36 177.154 489.11 179.114 489.685C181.074 490.26 187.874 485.375 187.874 485.375C187.874 485.375 202.374 475.155 209.104 472.73C214.684 473.75 220.33 474.568 226.044 475.185C231.744 479.185 243.014 493.425 243.014 493.425C243.014 493.425 248.134 500.015 250.189 500.015C252.244 500.015 257.399 493.425 257.399 493.425C257.399 493.425 268.434 479.535 274.199 475.35C279.919 474.78 285.575 474.002 291.169 473.015C297.804 475.31 312.594 485.77 312.594 485.77C312.594 485.77 319.379 490.665 321.354 490.09C323.329 489.515 326.354 481.775 326.354 481.775C326.354 481.775 332.939 465.505 337.279 459.82C342.612 457.66 347.847 455.312 352.984 452.775C360.024 453.14 377.139 459.035 377.139 459.035C377.139 459.035 385.039 461.835 386.774 460.735C388.509 459.635 389.224 451.355 389.224 451.355C389.224 451.355 390.924 433.755 393.489 427.15C397.942 423.63 402.259 419.953 406.439 416.12C413.224 414.48 431.484 415.37 431.484 415.37C431.484 415.37 439.864 415.87 441.209 414.315C442.554 412.76 440.899 404.63 440.899 404.63C440.899 404.63 437.529 387.31 438.104 380.24C441.394 375.617 444.509 370.867 447.449 365.99C453.554 362.53 471.209 358.315 471.209 358.315C471.209 358.315 479.384 356.445 480.244 354.59C481.104 352.735 477.189 345.385 477.189 345.385C477.189 345.385 469.094 329.825 467.589 322.845C469.432 317.472 471.075 312.005 472.519 306.445C477.419 301.445 493.099 292.49 493.099 292.49C493.099 292.49 500.414 288.415 500.709 286.395C501.004 284.375 495.154 278.395 495.154 278.395C495.154 278.395 482.844 265.605 479.494 259.365Z" fill="#281F17"/>
<path d="M465.779 258.805C465.899 255.885 465.96 252.952 465.964 250.005C465.964 247.63 465.919 245.265 465.844 242.905C468.844 237.12 480.724 224.83 480.724 224.83C480.724 224.83 486.223 219.235 485.953 217.33C485.683 215.425 478.813 211.585 478.813 211.585C478.813 211.585 464.403 203.34 459.648 198.585C458.338 193.362 456.838 188.215 455.148 183.145C456.448 176.7 464.263 161.76 464.263 161.76C464.263 161.76 467.954 154.855 467.154 153.11C466.354 151.365 458.654 149.61 458.654 149.61C458.654 149.61 442.444 145.705 436.539 142.46C433.809 137.853 430.914 133.353 427.854 128.96C427.244 122.46 430.508 105.825 430.508 105.825C430.508 105.825 432.088 98.1699 430.823 96.7199C429.558 95.2699 421.683 95.7199 421.683 95.7199C421.683 95.7199 404.899 96.5049 398.359 95.0149C394.465 91.3849 390.439 87.8982 386.279 84.5549C383.834 78.5099 382.234 61.5549 382.234 61.5549C382.234 61.5549 381.568 53.7749 379.943 52.7349C378.318 51.6949 370.888 54.3149 370.888 54.3149C370.888 54.3149 355.138 59.6999 348.388 60.1449C343.588 57.7215 338.685 55.4749 333.678 53.4049C329.613 48.2249 323.319 32.5649 323.319 32.5649C323.319 32.5649 320.468 25.2799 318.613 24.7399C316.758 24.1999 310.398 28.8049 310.398 28.8049C310.398 28.8049 296.774 38.3949 290.444 40.6799C285.11 39.6799 279.698 38.8965 274.208 38.3299C268.848 34.5549 258.249 21.1949 258.249 21.1949C258.249 21.1949 253.434 15.0049 251.499 15.0049C249.564 15.0049 244.754 21.1949 244.754 21.1949C244.754 21.1949 234.399 34.2549 228.964 38.1949C223.584 38.7416 218.267 39.4766 213.013 40.3999C206.783 38.2549 192.863 28.3999 192.863 28.3999C192.863 28.3999 186.484 23.8049 184.629 24.3449C182.774 24.8849 179.898 32.1899 179.898 32.1899C179.898 32.1899 173.708 47.5099 169.633 52.8499C164.633 54.8732 159.724 57.0799 154.904 59.4699C148.304 59.1399 132.173 53.5999 132.173 53.5999C132.173 53.5999 124.748 50.9699 123.118 52.0049C121.488 53.0399 120.819 60.8249 120.819 60.8249C120.819 60.8249 119.229 77.4149 116.819 83.6049C112.649 86.9049 108.608 90.3532 104.698 93.9499C98.3435 95.5049 81.1235 94.6799 81.1235 94.6799C81.1235 94.6799 73.2485 94.2299 71.9835 95.6799C70.7185 97.1299 72.2835 104.785 72.2835 104.785C72.2835 104.785 75.4685 121.125 74.9235 127.745C71.8502 132.078 68.9368 136.528 66.1835 141.095C60.4835 144.355 43.8185 148.345 43.8185 148.345C43.8185 148.345 36.1335 150.105 35.3185 151.845C34.5035 153.585 38.1935 160.495 38.1935 160.495C38.1935 160.495 45.8435 175.17 47.2385 181.715C45.5185 186.752 43.9868 191.867 42.6435 197.06C38.0985 201.785 23.2985 210.255 23.2985 210.255C23.2985 210.255 16.4285 214.09 16.1485 215.985C15.8685 217.88 21.3735 223.485 21.3735 223.485C21.3735 223.485 33.0135 235.57 36.1385 241.42C36.0285 244.277 35.9718 247.147 35.9685 250.03C35.9685 252.44 36.0102 254.842 36.0935 257.235C33.1235 263.005 21.2035 275.365 21.2035 275.365C21.2035 275.365 15.7035 280.96 15.9735 282.865C16.2435 284.77 23.1185 288.6 23.1185 288.6C23.1185 288.6 37.6185 296.875 42.3235 301.63C43.6335 306.83 45.1335 311.952 46.8235 316.995C45.5485 323.42 37.7135 338.43 37.7135 338.43C37.7135 338.43 34.0285 345.335 34.8335 347.08C35.6385 348.825 43.3335 350.58 43.3335 350.58C43.3335 350.58 59.6085 354.49 65.4885 357.73C68.2085 362.313 71.0935 366.787 74.1435 371.15C74.7785 377.65 71.5085 394.32 71.5085 394.32C71.5085 394.32 69.9335 401.975 71.1985 403.425C72.4635 404.875 80.3385 404.425 80.3385 404.425C80.3385 404.425 97.1785 403.625 103.698 405.12C107.578 408.737 111.593 412.21 115.743 415.54C118.198 421.54 119.819 438.54 119.819 438.54C119.819 438.54 120.483 446.325 122.108 447.36C123.733 448.395 131.148 445.755 131.148 445.755C131.148 445.755 146.923 440.35 153.648 439.915C158.442 442.325 163.335 444.562 168.328 446.625C172.398 451.795 178.719 467.475 178.719 467.475C178.719 467.475 181.568 474.76 183.428 475.3C185.288 475.84 191.664 471.25 191.664 471.25C191.664 471.25 205.294 461.64 211.624 459.36C216.864 460.32 222.17 461.09 227.543 461.67C232.898 465.44 243.493 478.815 243.493 478.815C243.493 478.815 248.303 485.01 250.238 485.01C252.173 485.01 256.993 478.825 256.993 478.825C256.993 478.825 267.369 465.765 272.784 461.825C278.164 461.288 283.482 460.557 288.738 459.63C294.973 461.785 308.879 471.63 308.879 471.63C308.879 471.63 315.253 476.23 317.108 475.69C318.963 475.15 321.828 467.875 321.828 467.875C321.828 467.875 328.019 452.58 332.099 447.235C337.119 445.205 342.04 442.997 346.864 440.61C353.479 440.955 369.568 446.495 369.568 446.495C369.568 446.495 376.993 449.13 378.623 448.095C380.253 447.06 380.929 439.28 380.929 439.28C380.929 439.28 382.529 422.735 384.929 416.525C389.115 413.222 393.172 409.767 397.099 406.16C403.474 404.615 420.643 405.45 420.643 405.45C420.643 405.45 428.519 405.91 429.784 404.45C431.049 402.99 429.489 395.35 429.489 395.35C429.489 395.35 426.329 379.07 426.864 372.425C429.96 368.092 432.888 363.625 435.648 359.025C441.383 355.77 457.984 351.81 457.984 351.81C457.984 351.81 465.669 350.05 466.484 348.31C467.299 346.57 463.614 339.655 463.614 339.655C463.614 339.655 456.009 325.035 454.614 318.47C456.344 313.417 457.887 308.278 459.243 303.055C463.853 298.33 478.589 289.935 478.589 289.935C478.589 289.935 485.464 286.105 485.739 284.205C486.014 282.305 480.523 276.705 480.523 276.705C480.523 276.705 468.929 264.67 465.779 258.805Z" fill="#D4A72C"/>
<path d="M405.194 95.7552L96.6338 404.335C89.2588 403.985 80.3188 404.41 80.3188 404.41C80.3188 404.41 72.4438 404.855 71.1788 403.41C69.9138 401.965 71.4888 394.305 71.4888 394.305C71.4888 394.305 74.7538 377.61 74.1238 371.135C71.0738 366.775 68.1888 362.302 65.4688 357.715C59.5888 354.475 43.3138 350.565 43.3138 350.565C43.3138 350.565 35.6288 348.795 34.8138 347.065C33.9988 345.335 37.6988 338.415 37.6988 338.415C37.6988 338.415 45.5338 323.415 46.8088 316.98C45.1255 311.937 43.6255 306.815 42.3088 301.615C37.5788 296.86 23.1038 288.585 23.1038 288.585C23.1038 288.585 16.2488 284.755 15.9738 282.835C15.6988 280.915 21.2038 275.335 21.2038 275.335C21.2038 275.335 33.1238 262.975 36.0888 257.205C36.0088 254.815 35.9672 252.414 35.9638 250C35.9638 247.117 36.0222 244.247 36.1388 241.39C33.0138 235.54 21.3738 223.455 21.3738 223.455C21.3738 223.455 15.8738 217.85 16.1488 215.955C16.4238 214.06 23.2988 210.255 23.2988 210.255C23.2988 210.255 38.0938 201.81 42.6688 197.085C44.0022 191.892 45.5338 186.777 47.2638 181.74C45.8638 175.195 38.2188 160.52 38.2188 160.52C38.2188 160.52 34.5388 153.61 35.3388 151.87C36.1388 150.13 43.8388 148.37 43.8388 148.37C43.8388 148.37 60.4988 144.37 66.2038 141.12C68.9505 136.553 71.8638 132.104 74.9438 127.77C75.4888 121.15 72.3038 104.81 72.3038 104.81C72.3038 104.81 70.7338 97.1552 71.9988 95.7052C73.2638 94.2552 81.1438 94.7052 81.1438 94.7052C81.1438 94.7052 98.3638 95.5302 104.719 93.9752C108.622 90.3818 112.662 86.9335 116.839 83.6302C119.254 77.4402 120.839 60.8502 120.839 60.8502C120.839 60.8502 121.509 53.0652 123.139 52.0302C124.769 50.9952 132.194 53.6252 132.194 53.6252C132.194 53.6252 148.324 59.1652 154.924 59.4952C159.734 57.1152 164.644 54.9085 169.654 52.8752C173.729 47.5352 179.914 32.2152 179.914 32.2152C179.914 32.2152 182.774 24.9352 184.629 24.3952C186.484 23.8552 192.869 28.4502 192.869 28.4502C192.869 28.4502 206.784 38.2802 213.019 40.4502C218.269 39.5235 223.584 38.7885 228.964 38.2452C234.379 34.3102 244.744 21.2452 244.744 21.2452C244.744 21.2452 249.559 15.0552 251.494 15.0552C253.429 15.0552 258.244 21.2452 258.244 21.2452C258.244 21.2452 268.844 34.6052 274.204 38.3802C279.677 38.9602 285.087 39.7435 290.434 40.7302C296.764 38.3952 310.399 28.8052 310.399 28.8052C310.399 28.8052 316.784 24.2202 318.639 24.7652C320.494 25.3102 323.344 32.5902 323.344 32.5902C323.344 32.5902 329.639 48.2502 333.704 53.4302C338.704 55.5002 343.607 57.7468 348.414 60.1702C355.159 59.7252 370.914 54.3402 370.914 54.3402C370.914 54.3402 378.349 51.7202 379.974 52.7602C381.599 53.8002 382.264 61.5802 382.264 61.5802C382.264 61.5802 383.864 78.5102 386.304 84.5802C390.464 87.9135 394.492 91.4002 398.389 95.0402C400.634 95.461 402.91 95.7001 405.194 95.7552Z" fill="#C18122"/>
<path d="M250.964 445.005C358.659 445.005 445.964 357.7 445.964 250.005C445.964 142.309 358.659 55.0049 250.964 55.0049C143.268 55.0049 55.9639 142.309 55.9639 250.005C55.9639 357.7 143.268 445.005 250.964 445.005Z" fill="#EDCB3C"/>
<path d="M388.848 112.12L113.078 387.89C94.9426 369.804 80.5607 348.311 70.759 324.648C60.9572 300.985 55.9289 275.618 55.9631 250.005C55.9631 142.31 143.268 55.0051 250.963 55.0051C276.576 54.9709 301.943 59.9992 325.606 69.801C349.269 79.6027 370.762 93.9846 388.848 112.12Z" fill="#ECBE00"/>
<path d="M251.214 409.005C338.889 409.005 409.964 337.93 409.964 250.255C409.964 162.58 338.889 91.5049 251.214 91.5049C163.539 91.5049 92.4639 162.58 92.4639 250.255C92.4639 337.93 163.539 409.005 251.214 409.005Z" fill="#F5DB7A"/>
<path opacity="0.56" d="M363.219 137.755L138.719 362.255C123.956 347.53 112.247 330.032 104.267 310.768C96.2875 291.503 92.1929 270.852 92.2189 250C92.2189 162.325 163.294 91.2501 250.969 91.2501C271.82 91.2254 292.471 95.3212 311.734 103.302C330.998 111.283 348.494 122.991 363.219 137.755Z" fill="#F0CC5E"/>
<path d="M251.214 81.5049C256.046 81.5049 259.964 77.5874 259.964 72.7549C259.964 67.9224 256.046 64.0049 251.214 64.0049C246.381 64.0049 242.464 67.9224 242.464 72.7549C242.464 77.5874 246.381 81.5049 251.214 81.5049Z" fill="white"/>
<path d="M251.214 436.505C256.046 436.505 259.964 432.587 259.964 427.755C259.964 422.922 256.046 419.005 251.214 419.005C246.381 419.005 242.464 422.922 242.464 427.755C242.464 432.587 246.381 436.505 251.214 436.505Z" fill="white"/>
<path d="M428.714 259.005C433.546 259.005 437.464 255.087 437.464 250.255C437.464 245.422 433.546 241.505 428.714 241.505C423.881 241.505 419.964 245.422 419.964 250.255C419.964 255.087 423.881 259.005 428.714 259.005Z" fill="white"/>
<path d="M73.7139 259.005C78.5464 259.005 82.4639 255.087 82.4639 250.255C82.4639 245.422 78.5464 241.505 73.7139 241.505C68.8814 241.505 64.9639 245.422 64.9639 250.255C64.9639 255.087 68.8814 259.005 73.7139 259.005Z" fill="white"/>
<path fill-rule="evenodd" clip-rule="evenodd" d="M118.653 242.195L223.228 277.74L258.773 382.315L336.273 164.695L118.653 242.195Z" fill="white"/>
<path d="M336.274 164.695L258.774 382.315L223.229 277.74L336.274 164.695Z" fill="white"/>
<path d="M336.273 164.695L223.228 277.74L118.653 242.195L336.273 164.695Z" fill="white"/>
<path fill-rule="evenodd" clip-rule="evenodd" d="M132.348 242.095L328.848 172.12L339.458 161.695C338.856 161.093 338.095 160.674 337.264 160.487C336.433 160.301 335.565 160.354 334.763 160.64L117.138 238.14C116.258 238.454 115.497 239.034 114.962 239.8C114.426 240.565 114.142 241.479 114.15 242.413C114.157 243.348 114.455 244.257 115.002 245.014C115.549 245.772 116.318 246.34 117.203 246.64L219.673 281.47L219.681 281.462L254.509 383.955C254.809 384.841 255.379 385.612 256.138 386.16C256.897 386.707 257.808 387.005 258.744 387.01H258.774C259.705 387.011 260.613 386.722 261.373 386.185C262.133 385.648 262.708 384.888 263.019 384.01L340.519 166.385C340.809 165.584 340.865 164.717 340.682 163.885C340.499 163.053 340.083 162.29 339.484 161.685L328.874 172.115L258.899 368.615L227.494 276.275C227.284 275.657 226.943 275.093 226.494 274.62L226.484 274.63C225.982 274.105 225.361 273.708 224.673 273.475L132.348 242.095Z" fill="#281F17"/>
<path d="M340.519 166.385L263.019 384.01C262.708 384.888 262.133 385.648 261.373 386.185C260.613 386.722 259.705 387.011 258.774 387.01H258.744C257.808 387.005 256.897 386.707 256.138 386.16C255.379 385.612 254.809 384.841 254.509 383.955L219.679 281.455L226.494 274.62C226.943 275.093 227.284 275.657 227.494 276.275L258.899 368.615L328.874 172.115L339.484 161.685C340.083 162.29 340.499 163.053 340.682 163.885C340.866 164.717 340.809 165.584 340.519 166.385Z" fill="#3A2E23"/>
<path d="M328.848 172.12L132.348 242.095L224.673 273.475C225.363 273.709 225.986 274.107 226.488 274.635L219.673 281.47L117.203 246.64C116.318 246.34 115.549 245.772 115.002 245.014C114.455 244.257 114.157 243.348 114.15 242.413C114.142 241.479 114.426 240.565 114.962 239.8C115.497 239.034 116.258 238.454 117.138 238.14L334.763 160.64C335.565 160.354 336.433 160.301 337.264 160.487C338.095 160.674 338.856 161.093 339.458 161.695L328.848 172.12Z" fill="#281F17"/>
</g>
<defs>
<clipPath id="clip0_14_837">
<rect width="499.976" height="500.01" fill="white" transform="translate(0.988281 0.00488281)"/>
</clipPath>
</defs>
</svg>
